<svg width="11" height="11" viewBox="0 0 11 11" fill="none" xmlns="http://www.w3.org/2000/svg">
<g clip-path="url(#clip0)">
<path d="M10.8928 5.62669C10.8928 5.25282 10.8624 4.87692 10.7978 4.50911H5.61V6.62706H8.5808C8.45752 7.31014 8.06141 7.9144 7.4814 8.29838V9.67262H9.25377C10.2946 8.71469 10.8928 7.30003 10.8928 5.62669Z" fill="#4285F4"/>
<path d="M5.60999 11.0004C7.09336 11.0004 8.34433 10.5133 9.25577 9.67262L7.48341 8.29837C6.99029 8.63385 6.3537 8.82382 5.61201 8.82382C4.17714 8.82382 2.96053 7.85579 2.52401 6.5543H0.695053V7.97098C1.62873 9.82823 3.53044 11.0004 5.60999 11.0004V11.0004Z" fill="#34A853"/>
<path d="M2.522 6.5543C2.29161 5.87122 2.29161 5.13155 2.522 4.44847V3.03179H0.695064C-0.0850205 4.5859 -0.0850205 6.41687 0.695064 7.97098L2.522 6.5543V6.5543Z" fill="#FBBC04"/>
<path d="M5.60999 2.17693C6.39412 2.1648 7.15197 2.45986 7.71986 3.00147L9.29013 1.4312C8.29582 0.497523 6.97615 -0.0157969 5.60999 0.000370639C3.53044 0.000370639 1.62873 1.17252 0.695053 3.03179L2.52199 4.44847C2.95649 3.14496 4.17512 2.17693 5.60999 2.17693V2.17693Z" fill="#EA4335"/>
</g>
<defs>
<clipPath id="clip0">
<rect width="11" height="11" fill="white"/>
</clipPath>
</defs>
</svg>
